<mxfile host="app.diagrams.net" modified="2021-11-29T16:56:10.452Z" agent="5.0 (X11; Linux x86_64) AppleWebKit/537.36 (KHTML, like Gecko) Chrome/92.0.4515.159 Safari/537.36" etag="2XmB97Sf4hz1_OOSXijr" version="15.8.6" type="github" pages="6">
  <diagram id="EfK30_WpzlrsW59BfA_4" name="WC - Externo">
    <mxGraphModel dx="906" dy="499" grid="1" gridSize="10" guides="1" tooltips="1" connect="1" arrows="1" fold="1" page="1" pageScale="1" pageWidth="827" pageHeight="1169" math="0" shadow="0">
      <root>
        <mxCell id="0" />
        <mxCell id="1" parent="0" />
        <mxCell id="QXLaKwnPHdImvZ4GBOoo-6" value="Frontend Cliente" style="sketch=0;pointerEvents=1;shadow=0;dashed=0;html=1;strokeColor=none;fillColor=#434445;aspect=fixed;labelPosition=center;verticalLabelPosition=bottom;verticalAlign=top;align=center;outlineConnect=0;shape=mxgraph.vvd.web_browser;" parent="1" vertex="1">
          <mxGeometry x="232" y="130" width="50" height="35.5" as="geometry" />
        </mxCell>
        <mxCell id="QXLaKwnPHdImvZ4GBOoo-8" value="Backend Cliente" style="sketch=0;outlineConnect=0;fontColor=#232F3E;gradientColor=none;fillColor=#232F3D;strokeColor=none;dashed=0;verticalLabelPosition=bottom;verticalAlign=top;align=center;html=1;fontSize=12;fontStyle=0;aspect=fixed;pointerEvents=1;shape=mxgraph.aws4.traditional_server;" parent="1" vertex="1">
          <mxGeometry x="463.25" y="117.82999999999998" width="27.5" height="47.67" as="geometry" />
        </mxCell>
        <mxCell id="QXLaKwnPHdImvZ4GBOoo-13" value="" style="endArrow=open;endFill=1;endSize=12;html=1;rounded=0;" parent="1" edge="1">
          <mxGeometry width="160" relative="1" as="geometry">
            <mxPoint x="262" y="240" as="sourcePoint" />
            <mxPoint x="472" y="240" as="targetPoint" />
          </mxGeometry>
        </mxCell>
        <mxCell id="QXLaKwnPHdImvZ4GBOoo-14" value="1 - Solicita token" style="text;html=1;align=center;verticalAlign=middle;resizable=0;points=[];autosize=1;strokeColor=none;fillColor=none;" parent="1" vertex="1">
          <mxGeometry x="312" y="220" width="100" height="20" as="geometry" />
        </mxCell>
        <mxCell id="QXLaKwnPHdImvZ4GBOoo-18" value="" style="endArrow=open;endFill=1;endSize=12;html=1;rounded=0;entryX=0;entryY=0.2;entryDx=0;entryDy=0;entryPerimeter=0;" parent="1" edge="1">
          <mxGeometry width="160" relative="1" as="geometry">
            <mxPoint x="480.75" y="260" as="sourcePoint" />
            <mxPoint x="690.75" y="260" as="targetPoint" />
          </mxGeometry>
        </mxCell>
        <mxCell id="QXLaKwnPHdImvZ4GBOoo-19" value="2 - Solicita token(client id e secret)" style="text;html=1;align=center;verticalAlign=middle;resizable=0;points=[];autosize=1;strokeColor=none;fillColor=none;" parent="1" vertex="1">
          <mxGeometry x="480.75" y="240" width="200" height="20" as="geometry" />
        </mxCell>
        <mxCell id="QXLaKwnPHdImvZ4GBOoo-22" value="" style="endArrow=open;endFill=1;endSize=12;html=1;rounded=0;entryX=0;entryY=0.2;entryDx=0;entryDy=0;entryPerimeter=0;" parent="1" edge="1">
          <mxGeometry width="160" relative="1" as="geometry">
            <mxPoint x="690.75" y="300" as="sourcePoint" />
            <mxPoint x="480.75" y="300" as="targetPoint" />
          </mxGeometry>
        </mxCell>
        <mxCell id="QXLaKwnPHdImvZ4GBOoo-23" value="3 - Token" style="text;html=1;align=center;verticalAlign=middle;resizable=0;points=[];autosize=1;strokeColor=none;fillColor=none;" parent="1" vertex="1">
          <mxGeometry x="550.75" y="280" width="60" height="20" as="geometry" />
        </mxCell>
        <mxCell id="QXLaKwnPHdImvZ4GBOoo-30" value="" style="endArrow=open;endFill=1;endSize=12;html=1;rounded=0;entryX=0;entryY=0.2;entryDx=0;entryDy=0;entryPerimeter=0;" parent="1" edge="1">
          <mxGeometry width="160" relative="1" as="geometry">
            <mxPoint x="472" y="320" as="sourcePoint" />
            <mxPoint x="262" y="320" as="targetPoint" />
          </mxGeometry>
        </mxCell>
        <mxCell id="QXLaKwnPHdImvZ4GBOoo-31" value="3 - Token" style="text;html=1;align=center;verticalAlign=middle;resizable=0;points=[];autosize=1;strokeColor=none;fillColor=none;" parent="1" vertex="1">
          <mxGeometry x="332" y="300" width="60" height="20" as="geometry" />
        </mxCell>
        <mxCell id="QXLaKwnPHdImvZ4GBOoo-34" value="" style="endArrow=none;html=1;rounded=0;fillColor=#bac8d3;strokeColor=#23445d;strokeWidth=2;" parent="1" edge="1">
          <mxGeometry width="50" height="50" relative="1" as="geometry">
            <mxPoint x="257" y="540" as="sourcePoint" />
            <mxPoint x="256.58" y="194" as="targetPoint" />
          </mxGeometry>
        </mxCell>
        <mxCell id="QXLaKwnPHdImvZ4GBOoo-35" value="" style="endArrow=none;html=1;rounded=0;fillColor=#bac8d3;strokeColor=#23445d;strokeWidth=2;" parent="1" edge="1">
          <mxGeometry width="50" height="50" relative="1" as="geometry">
            <mxPoint x="477" y="540" as="sourcePoint" />
            <mxPoint x="476.5799999999999" y="199" as="targetPoint" />
          </mxGeometry>
        </mxCell>
        <mxCell id="QXLaKwnPHdImvZ4GBOoo-36" value="" style="endArrow=none;html=1;rounded=0;fillColor=#bac8d3;strokeColor=#23445d;strokeWidth=2;" parent="1" edge="1">
          <mxGeometry width="50" height="50" relative="1" as="geometry">
            <mxPoint x="695" y="540" as="sourcePoint" />
            <mxPoint x="695.3299999999997" y="200" as="targetPoint" />
          </mxGeometry>
        </mxCell>
        <mxCell id="QXLaKwnPHdImvZ4GBOoo-37" value="&lt;font color=&quot;#1a3300&quot;&gt;&lt;b&gt;&amp;nbsp; &amp;nbsp; Web Component&lt;/b&gt;&lt;br&gt;&lt;br&gt;Coleta dados&lt;br&gt;Apresentado o resultado da chamadas a api&lt;/font&gt;" style="rounded=0;whiteSpace=wrap;html=1;fillColor=#d5e8d4;strokeColor=none;align=left;" parent="1" vertex="1">
          <mxGeometry x="120" y="420" width="135" height="100" as="geometry" />
        </mxCell>
        <mxCell id="QXLaKwnPHdImvZ4GBOoo-41" value="&lt;font color=&quot;#4d4d4d&quot;&gt;Inicializa o Web Component exertando o token&lt;/font&gt;" style="rounded=0;whiteSpace=wrap;html=1;fontSize=12;strokeColor=none;fillColor=#CCCCCC;align=center;" parent="1" vertex="1">
          <mxGeometry x="120" y="335" width="135" height="60" as="geometry" />
        </mxCell>
        <mxCell id="QXLaKwnPHdImvZ4GBOoo-45" value="" style="endArrow=open;endFill=1;endSize=12;html=1;rounded=0;" parent="1" edge="1">
          <mxGeometry width="160" relative="1" as="geometry">
            <mxPoint x="262" y="440" as="sourcePoint" />
            <mxPoint x="692" y="440" as="targetPoint" />
          </mxGeometry>
        </mxCell>
        <mxCell id="QXLaKwnPHdImvZ4GBOoo-46" value="4 - Executa chamada da api com o Token" style="text;html=1;align=center;verticalAlign=middle;resizable=0;points=[];autosize=1;strokeColor=none;fillColor=none;" parent="1" vertex="1">
          <mxGeometry x="262" y="420" width="240" height="20" as="geometry" />
        </mxCell>
        <mxCell id="QXLaKwnPHdImvZ4GBOoo-48" value="" style="endArrow=open;endFill=1;endSize=12;html=1;rounded=0;" parent="1" edge="1">
          <mxGeometry width="160" relative="1" as="geometry">
            <mxPoint x="688.25" y="480" as="sourcePoint" />
            <mxPoint x="262" y="480" as="targetPoint" />
          </mxGeometry>
        </mxCell>
        <mxCell id="QXLaKwnPHdImvZ4GBOoo-49" value="5 - Resultado" style="text;html=1;align=center;verticalAlign=middle;resizable=0;points=[];autosize=1;strokeColor=none;fillColor=none;" parent="1" vertex="1">
          <mxGeometry x="540.75" y="460" width="90" height="20" as="geometry" />
        </mxCell>
        <mxCell id="QXLaKwnPHdImvZ4GBOoo-52" value="Sensedia" style="verticalLabelPosition=bottom;html=1;verticalAlign=top;align=center;strokeColor=none;fillColor=#4D4D4D;shape=mxgraph.azure.cloud;fontSize=12;fontColor=#333333;" parent="1" vertex="1">
          <mxGeometry x="672" y="133" width="50" height="32.5" as="geometry" />
        </mxCell>
        <mxCell id="QXLaKwnPHdImvZ4GBOoo-132" value="WC - Externo&amp;nbsp;" style="text;html=1;strokeColor=none;fillColor=none;align=center;verticalAlign=middle;whiteSpace=wrap;rounded=0;fontSize=21;fontColor=#333333;strokeWidth=3;fontStyle=1" parent="1" vertex="1">
          <mxGeometry x="282" y="50" width="280" height="30" as="geometry" />
        </mxCell>
      </root>
    </mxGraphModel>
  </diagram>
  <diagram id="iVYmpT6pJ3Zl9p6NvqAC" name="WC - Interno">
    <mxGraphModel dx="1087" dy="598" grid="1" gridSize="10" guides="1" tooltips="1" connect="1" arrows="1" fold="1" page="1" pageScale="1" pageWidth="827" pageHeight="1169" math="0" shadow="0">
      <root>
        <mxCell id="GUYwktw-sob91jPQ089a-0" />
        <mxCell id="GUYwktw-sob91jPQ089a-1" parent="GUYwktw-sob91jPQ089a-0" />
        <mxCell id="Q7rMhWkv177si-3BIu4a-0" value="Frontend Applicação" style="sketch=0;pointerEvents=1;shadow=0;dashed=0;html=1;strokeColor=none;fillColor=#434445;aspect=fixed;labelPosition=center;verticalLabelPosition=bottom;verticalAlign=top;align=center;outlineConnect=0;shape=mxgraph.vvd.web_browser;" parent="GUYwktw-sob91jPQ089a-1" vertex="1">
          <mxGeometry x="120" y="93.34000000000009" width="50" height="35.5" as="geometry" />
        </mxCell>
        <mxCell id="Q7rMhWkv177si-3BIu4a-1" value="Backend Aplicação" style="sketch=0;outlineConnect=0;fontColor=#232F3E;gradientColor=none;fillColor=#232F3D;strokeColor=none;dashed=0;verticalLabelPosition=bottom;verticalAlign=top;align=center;html=1;fontSize=12;fontStyle=0;aspect=fixed;pointerEvents=1;shape=mxgraph.aws4.traditional_server;" parent="GUYwktw-sob91jPQ089a-1" vertex="1">
          <mxGeometry x="351.25" y="81.17000000000002" width="27.5" height="47.67" as="geometry" />
        </mxCell>
        <mxCell id="Q7rMhWkv177si-3BIu4a-2" value="" style="endArrow=open;endFill=1;endSize=12;html=1;rounded=0;" parent="GUYwktw-sob91jPQ089a-1" edge="1">
          <mxGeometry width="160" relative="1" as="geometry">
            <mxPoint x="150" y="203.34000000000032" as="sourcePoint" />
            <mxPoint x="360" y="203.34000000000032" as="targetPoint" />
          </mxGeometry>
        </mxCell>
        <mxCell id="Q7rMhWkv177si-3BIu4a-3" value="1 - Solicita token" style="text;html=1;align=center;verticalAlign=middle;resizable=0;points=[];autosize=1;strokeColor=none;fillColor=none;" parent="GUYwktw-sob91jPQ089a-1" vertex="1">
          <mxGeometry x="200" y="183.3400000000001" width="100" height="20" as="geometry" />
        </mxCell>
        <mxCell id="Q7rMhWkv177si-3BIu4a-4" value="" style="endArrow=open;endFill=1;endSize=12;html=1;rounded=0;entryX=0;entryY=0.2;entryDx=0;entryDy=0;entryPerimeter=0;" parent="GUYwktw-sob91jPQ089a-1" edge="1">
          <mxGeometry width="160" relative="1" as="geometry">
            <mxPoint x="368.75" y="223.34000000000032" as="sourcePoint" />
            <mxPoint x="578.75" y="223.34000000000032" as="targetPoint" />
          </mxGeometry>
        </mxCell>
        <mxCell id="Q7rMhWkv177si-3BIu4a-5" value="2 - Solicita token(client id e secret)" style="text;html=1;align=center;verticalAlign=middle;resizable=0;points=[];autosize=1;strokeColor=none;fillColor=none;" parent="GUYwktw-sob91jPQ089a-1" vertex="1">
          <mxGeometry x="368.75" y="203.3400000000001" width="200" height="20" as="geometry" />
        </mxCell>
        <mxCell id="Q7rMhWkv177si-3BIu4a-6" value="" style="endArrow=open;endFill=1;endSize=12;html=1;rounded=0;entryX=0;entryY=0.2;entryDx=0;entryDy=0;entryPerimeter=0;" parent="GUYwktw-sob91jPQ089a-1" edge="1">
          <mxGeometry width="160" relative="1" as="geometry">
            <mxPoint x="578.75" y="263.3400000000004" as="sourcePoint" />
            <mxPoint x="368.75" y="263.3400000000004" as="targetPoint" />
          </mxGeometry>
        </mxCell>
        <mxCell id="Q7rMhWkv177si-3BIu4a-7" value="3 - Token" style="text;html=1;align=center;verticalAlign=middle;resizable=0;points=[];autosize=1;strokeColor=none;fillColor=none;" parent="GUYwktw-sob91jPQ089a-1" vertex="1">
          <mxGeometry x="438.75" y="243.3400000000001" width="60" height="20" as="geometry" />
        </mxCell>
        <mxCell id="Q7rMhWkv177si-3BIu4a-8" value="" style="endArrow=open;endFill=1;endSize=12;html=1;rounded=0;entryX=0;entryY=0.2;entryDx=0;entryDy=0;entryPerimeter=0;" parent="GUYwktw-sob91jPQ089a-1" edge="1">
          <mxGeometry width="160" relative="1" as="geometry">
            <mxPoint x="360" y="283.3400000000004" as="sourcePoint" />
            <mxPoint x="150" y="283.3400000000004" as="targetPoint" />
          </mxGeometry>
        </mxCell>
        <mxCell id="Q7rMhWkv177si-3BIu4a-9" value="4 - Token" style="text;html=1;align=center;verticalAlign=middle;resizable=0;points=[];autosize=1;strokeColor=none;fillColor=none;" parent="GUYwktw-sob91jPQ089a-1" vertex="1">
          <mxGeometry x="220" y="263.34000000000015" width="60" height="20" as="geometry" />
        </mxCell>
        <mxCell id="Q7rMhWkv177si-3BIu4a-10" value="" style="endArrow=none;html=1;rounded=0;fillColor=#bac8d3;strokeColor=#23445d;strokeWidth=2;" parent="GUYwktw-sob91jPQ089a-1" edge="1">
          <mxGeometry width="50" height="50" relative="1" as="geometry">
            <mxPoint x="145" y="503.34000000000015" as="sourcePoint" />
            <mxPoint x="144.57999999999993" y="157.3400000000001" as="targetPoint" />
          </mxGeometry>
        </mxCell>
        <mxCell id="Q7rMhWkv177si-3BIu4a-11" value="" style="endArrow=none;html=1;rounded=0;fillColor=#bac8d3;strokeColor=#23445d;strokeWidth=2;" parent="GUYwktw-sob91jPQ089a-1" edge="1">
          <mxGeometry width="50" height="50" relative="1" as="geometry">
            <mxPoint x="365" y="503.34000000000015" as="sourcePoint" />
            <mxPoint x="364.5799999999997" y="162.3400000000001" as="targetPoint" />
          </mxGeometry>
        </mxCell>
        <mxCell id="Q7rMhWkv177si-3BIu4a-12" value="" style="endArrow=none;html=1;rounded=0;fillColor=#bac8d3;strokeColor=#23445d;strokeWidth=2;" parent="GUYwktw-sob91jPQ089a-1" edge="1">
          <mxGeometry width="50" height="50" relative="1" as="geometry">
            <mxPoint x="583" y="503.34000000000015" as="sourcePoint" />
            <mxPoint x="583.3299999999999" y="163.34000000000032" as="targetPoint" />
          </mxGeometry>
        </mxCell>
        <mxCell id="Q7rMhWkv177si-3BIu4a-13" value="&lt;font color=&quot;#1a3300&quot;&gt;&lt;b&gt;&amp;nbsp; &amp;nbsp; Web Component&lt;/b&gt;&lt;br&gt;&lt;br&gt;Coleta dados&lt;br&gt;Apresentado o resultado da chamadas a api&lt;/font&gt;" style="rounded=0;whiteSpace=wrap;html=1;fillColor=#d5e8d4;strokeColor=none;align=left;" parent="GUYwktw-sob91jPQ089a-1" vertex="1">
          <mxGeometry x="9" y="383.34000000000015" width="135" height="100" as="geometry" />
        </mxCell>
        <mxCell id="Q7rMhWkv177si-3BIu4a-14" value="&lt;font color=&quot;#4d4d4d&quot;&gt;Inicializa o Web Component exertando o token&lt;/font&gt;" style="rounded=0;whiteSpace=wrap;html=1;fontSize=12;strokeColor=none;fillColor=#CCCCCC;align=center;" parent="GUYwktw-sob91jPQ089a-1" vertex="1">
          <mxGeometry x="9" y="305.0000000000001" width="135" height="60" as="geometry" />
        </mxCell>
        <mxCell id="Q7rMhWkv177si-3BIu4a-15" value="" style="endArrow=open;endFill=1;endSize=12;html=1;rounded=0;" parent="GUYwktw-sob91jPQ089a-1" edge="1">
          <mxGeometry width="160" relative="1" as="geometry">
            <mxPoint x="155" y="403" as="sourcePoint" />
            <mxPoint x="800" y="403.1700000000001" as="targetPoint" />
          </mxGeometry>
        </mxCell>
        <mxCell id="Q7rMhWkv177si-3BIu4a-16" value="5 - Executa chamada do serviço com o Token" style="text;html=1;align=center;verticalAlign=middle;resizable=0;points=[];autosize=1;strokeColor=none;fillColor=none;" parent="GUYwktw-sob91jPQ089a-1" vertex="1">
          <mxGeometry x="329" y="383.34000000000015" width="260" height="20" as="geometry" />
        </mxCell>
        <mxCell id="Q7rMhWkv177si-3BIu4a-17" value="" style="endArrow=open;endFill=1;endSize=12;html=1;rounded=0;" parent="GUYwktw-sob91jPQ089a-1" edge="1">
          <mxGeometry width="160" relative="1" as="geometry">
            <mxPoint x="800" y="443.1700000000001" as="sourcePoint" />
            <mxPoint x="155" y="443" as="targetPoint" />
          </mxGeometry>
        </mxCell>
        <mxCell id="Q7rMhWkv177si-3BIu4a-18" value="6 - Resultado" style="text;html=1;align=center;verticalAlign=middle;resizable=0;points=[];autosize=1;strokeColor=none;fillColor=none;" parent="GUYwktw-sob91jPQ089a-1" vertex="1">
          <mxGeometry x="705" y="420.0000000000001" width="90" height="20" as="geometry" />
        </mxCell>
        <mxCell id="Q7rMhWkv177si-3BIu4a-19" value="RH SSO" style="sketch=0;aspect=fixed;pointerEvents=1;shadow=0;dashed=0;html=1;strokeColor=none;labelPosition=center;verticalLabelPosition=bottom;verticalAlign=top;align=center;fillColor=#333333;shape=mxgraph.mscae.enterprise.lock;fontSize=12;fontColor=#1A3300;" parent="GUYwktw-sob91jPQ089a-1" vertex="1">
          <mxGeometry x="560" y="80.00000000000006" width="39" height="50" as="geometry" />
        </mxCell>
        <mxCell id="Q7rMhWkv177si-3BIu4a-20" value="Serviço&amp;nbsp;" style="sketch=0;outlineConnect=0;fontColor=#232F3E;gradientColor=none;fillColor=#232F3D;strokeColor=none;dashed=0;verticalLabelPosition=bottom;verticalAlign=top;align=center;html=1;fontSize=12;fontStyle=0;aspect=fixed;pointerEvents=1;shape=mxgraph.aws4.traditional_server;" parent="GUYwktw-sob91jPQ089a-1" vertex="1">
          <mxGeometry x="790" y="81.17000000000002" width="27.5" height="47.67" as="geometry" />
        </mxCell>
        <mxCell id="Q7rMhWkv177si-3BIu4a-21" value="" style="endArrow=none;html=1;rounded=0;fillColor=#bac8d3;strokeColor=#23445d;strokeWidth=2;" parent="GUYwktw-sob91jPQ089a-1" edge="1">
          <mxGeometry width="50" height="50" relative="1" as="geometry">
            <mxPoint x="803.75" y="503.34000000000015" as="sourcePoint" />
            <mxPoint x="803.3299999999999" y="162.3400000000001" as="targetPoint" />
          </mxGeometry>
        </mxCell>
        <mxCell id="xf2Fe40GoqhdoWzrvZzz-0" value="WC Interno" style="text;html=1;strokeColor=none;fillColor=none;align=center;verticalAlign=middle;whiteSpace=wrap;rounded=0;fontSize=21;fontColor=#333333;strokeWidth=3;fontStyle=1" parent="GUYwktw-sob91jPQ089a-1" vertex="1">
          <mxGeometry x="269" y="10" width="280" height="30" as="geometry" />
        </mxCell>
      </root>
    </mxGraphModel>
  </diagram>
  <diagram id="qC0B_nCli5C7ApGTCwYZ" name="WC - Back - Externo">
    <mxGraphModel dx="906" dy="499" grid="1" gridSize="10" guides="1" tooltips="1" connect="1" arrows="1" fold="1" page="1" pageScale="1" pageWidth="827" pageHeight="1169" math="0" shadow="0">
      <root>
        <mxCell id="nTOjmm5Q35ISDnajFgMh-0" />
        <mxCell id="nTOjmm5Q35ISDnajFgMh-1" parent="nTOjmm5Q35ISDnajFgMh-0" />
        <mxCell id="EGSdrr3BdCg8Iz6odmI6-0" value="Frontend Cliente" style="sketch=0;pointerEvents=1;shadow=0;dashed=0;html=1;strokeColor=none;fillColor=#434445;aspect=fixed;labelPosition=center;verticalLabelPosition=bottom;verticalAlign=top;align=center;outlineConnect=0;shape=mxgraph.vvd.web_browser;" parent="nTOjmm5Q35ISDnajFgMh-1" vertex="1">
          <mxGeometry x="212" y="110" width="50" height="35.5" as="geometry" />
        </mxCell>
        <mxCell id="EGSdrr3BdCg8Iz6odmI6-1" value="Backend Cliente" style="sketch=0;outlineConnect=0;fontColor=#232F3E;gradientColor=none;fillColor=#232F3D;strokeColor=none;dashed=0;verticalLabelPosition=bottom;verticalAlign=top;align=center;html=1;fontSize=12;fontStyle=0;aspect=fixed;pointerEvents=1;shape=mxgraph.aws4.traditional_server;" parent="nTOjmm5Q35ISDnajFgMh-1" vertex="1">
          <mxGeometry x="443.25" y="97.82999999999998" width="27.5" height="47.67" as="geometry" />
        </mxCell>
        <mxCell id="EGSdrr3BdCg8Iz6odmI6-2" value="" style="endArrow=open;endFill=1;endSize=12;html=1;rounded=0;" parent="nTOjmm5Q35ISDnajFgMh-1" edge="1">
          <mxGeometry width="160" relative="1" as="geometry">
            <mxPoint x="242" y="220" as="sourcePoint" />
            <mxPoint x="452" y="220" as="targetPoint" />
          </mxGeometry>
        </mxCell>
        <mxCell id="EGSdrr3BdCg8Iz6odmI6-3" value="1 - Solicita token" style="text;html=1;align=center;verticalAlign=middle;resizable=0;points=[];autosize=1;strokeColor=none;fillColor=none;" parent="nTOjmm5Q35ISDnajFgMh-1" vertex="1">
          <mxGeometry x="292" y="200" width="100" height="20" as="geometry" />
        </mxCell>
        <mxCell id="EGSdrr3BdCg8Iz6odmI6-4" value="" style="endArrow=open;endFill=1;endSize=12;html=1;rounded=0;entryX=0;entryY=0.2;entryDx=0;entryDy=0;entryPerimeter=0;" parent="nTOjmm5Q35ISDnajFgMh-1" edge="1">
          <mxGeometry width="160" relative="1" as="geometry">
            <mxPoint x="460.75" y="240" as="sourcePoint" />
            <mxPoint x="670.75" y="240" as="targetPoint" />
          </mxGeometry>
        </mxCell>
        <mxCell id="EGSdrr3BdCg8Iz6odmI6-5" value="2 - Solicita token(client id e secret)" style="text;html=1;align=center;verticalAlign=middle;resizable=0;points=[];autosize=1;strokeColor=none;fillColor=none;" parent="nTOjmm5Q35ISDnajFgMh-1" vertex="1">
          <mxGeometry x="460.75" y="220" width="200" height="20" as="geometry" />
        </mxCell>
        <mxCell id="EGSdrr3BdCg8Iz6odmI6-6" value="" style="endArrow=open;endFill=1;endSize=12;html=1;rounded=0;entryX=0;entryY=0.2;entryDx=0;entryDy=0;entryPerimeter=0;" parent="nTOjmm5Q35ISDnajFgMh-1" edge="1">
          <mxGeometry width="160" relative="1" as="geometry">
            <mxPoint x="670.75" y="280" as="sourcePoint" />
            <mxPoint x="460.75" y="280" as="targetPoint" />
          </mxGeometry>
        </mxCell>
        <mxCell id="EGSdrr3BdCg8Iz6odmI6-7" value="3 - Token" style="text;html=1;align=center;verticalAlign=middle;resizable=0;points=[];autosize=1;strokeColor=none;fillColor=none;" parent="nTOjmm5Q35ISDnajFgMh-1" vertex="1">
          <mxGeometry x="530.75" y="260" width="60" height="20" as="geometry" />
        </mxCell>
        <mxCell id="EGSdrr3BdCg8Iz6odmI6-10" value="" style="endArrow=none;html=1;rounded=0;fillColor=#bac8d3;strokeColor=#23445d;strokeWidth=2;" parent="nTOjmm5Q35ISDnajFgMh-1" edge="1">
          <mxGeometry width="50" height="50" relative="1" as="geometry">
            <mxPoint x="237" y="520" as="sourcePoint" />
            <mxPoint x="236.57999999999993" y="174" as="targetPoint" />
          </mxGeometry>
        </mxCell>
        <mxCell id="EGSdrr3BdCg8Iz6odmI6-11" value="" style="endArrow=none;html=1;rounded=0;fillColor=#bac8d3;strokeColor=#23445d;strokeWidth=2;" parent="nTOjmm5Q35ISDnajFgMh-1" edge="1">
          <mxGeometry width="50" height="50" relative="1" as="geometry">
            <mxPoint x="457" y="520" as="sourcePoint" />
            <mxPoint x="456.5799999999999" y="179" as="targetPoint" />
          </mxGeometry>
        </mxCell>
        <mxCell id="EGSdrr3BdCg8Iz6odmI6-12" value="" style="endArrow=none;html=1;rounded=0;fillColor=#bac8d3;strokeColor=#23445d;strokeWidth=2;" parent="nTOjmm5Q35ISDnajFgMh-1" edge="1">
          <mxGeometry width="50" height="50" relative="1" as="geometry">
            <mxPoint x="675" y="520" as="sourcePoint" />
            <mxPoint x="675.3299999999997" y="180" as="targetPoint" />
          </mxGeometry>
        </mxCell>
        <mxCell id="EGSdrr3BdCg8Iz6odmI6-13" value="&lt;font color=&quot;#1a3300&quot;&gt;&lt;b&gt;&amp;nbsp; &amp;nbsp;Web Component&lt;/b&gt;&lt;br&gt;&lt;br&gt;Coleta dados&lt;br&gt;Apresentado o resultado da chamadas a api&lt;/font&gt;" style="rounded=0;whiteSpace=wrap;html=1;fillColor=#d5e8d4;strokeColor=none;align=left;" parent="nTOjmm5Q35ISDnajFgMh-1" vertex="1">
          <mxGeometry x="100" y="370" width="135" height="150" as="geometry" />
        </mxCell>
        <mxCell id="EGSdrr3BdCg8Iz6odmI6-14" value="&lt;font color=&quot;#4d4d4d&quot;&gt;Inicializa o Web Component exertando o token&lt;/font&gt;" style="rounded=0;whiteSpace=wrap;html=1;fontSize=12;strokeColor=none;fillColor=#CCCCCC;align=center;" parent="nTOjmm5Q35ISDnajFgMh-1" vertex="1">
          <mxGeometry x="100" y="290" width="135" height="60" as="geometry" />
        </mxCell>
        <mxCell id="EGSdrr3BdCg8Iz6odmI6-15" value="" style="endArrow=open;endFill=1;endSize=12;html=1;rounded=0;" parent="nTOjmm5Q35ISDnajFgMh-1" edge="1">
          <mxGeometry width="160" relative="1" as="geometry">
            <mxPoint x="242" y="390" as="sourcePoint" />
            <mxPoint x="452" y="390" as="targetPoint" />
          </mxGeometry>
        </mxCell>
        <mxCell id="EGSdrr3BdCg8Iz6odmI6-16" value="4 - Executa&amp;nbsp; chamada api backend" style="text;html=1;align=center;verticalAlign=middle;resizable=0;points=[];autosize=1;strokeColor=none;fillColor=none;" parent="nTOjmm5Q35ISDnajFgMh-1" vertex="1">
          <mxGeometry x="243.25" y="370" width="200" height="20" as="geometry" />
        </mxCell>
        <mxCell id="EGSdrr3BdCg8Iz6odmI6-19" value="Sensedia" style="verticalLabelPosition=bottom;html=1;verticalAlign=top;align=center;strokeColor=none;fillColor=#4D4D4D;shape=mxgraph.azure.cloud;fontSize=12;fontColor=#333333;" parent="nTOjmm5Q35ISDnajFgMh-1" vertex="1">
          <mxGeometry x="652" y="113" width="50" height="32.5" as="geometry" />
        </mxCell>
        <mxCell id="EGSdrr3BdCg8Iz6odmI6-22" value="" style="endArrow=open;endFill=1;endSize=12;html=1;rounded=0;entryX=0;entryY=0.2;entryDx=0;entryDy=0;entryPerimeter=0;" parent="nTOjmm5Q35ISDnajFgMh-1" edge="1">
          <mxGeometry width="160" relative="1" as="geometry">
            <mxPoint x="460.75" y="440" as="sourcePoint" />
            <mxPoint x="670.75" y="440" as="targetPoint" />
          </mxGeometry>
        </mxCell>
        <mxCell id="EGSdrr3BdCg8Iz6odmI6-23" value="5 - Executa chamada da api com o Token" style="text;html=1;align=center;verticalAlign=middle;resizable=0;points=[];autosize=1;strokeColor=none;fillColor=none;" parent="nTOjmm5Q35ISDnajFgMh-1" vertex="1">
          <mxGeometry x="452" y="420" width="240" height="20" as="geometry" />
        </mxCell>
        <mxCell id="QU0-mM6ibidWZDQWm-KR-1" value="" style="endArrow=open;endFill=1;endSize=12;html=1;rounded=0;entryX=0;entryY=0.2;entryDx=0;entryDy=0;entryPerimeter=0;" parent="nTOjmm5Q35ISDnajFgMh-1" edge="1">
          <mxGeometry width="160" relative="1" as="geometry">
            <mxPoint x="670.75" y="480" as="sourcePoint" />
            <mxPoint x="460.75" y="480" as="targetPoint" />
          </mxGeometry>
        </mxCell>
        <mxCell id="QU0-mM6ibidWZDQWm-KR-2" value="6 - Resultado" style="text;html=1;align=center;verticalAlign=middle;resizable=0;points=[];autosize=1;strokeColor=none;fillColor=none;" parent="nTOjmm5Q35ISDnajFgMh-1" vertex="1">
          <mxGeometry x="527" y="460" width="90" height="20" as="geometry" />
        </mxCell>
        <mxCell id="QU0-mM6ibidWZDQWm-KR-3" value="" style="endArrow=open;endFill=1;endSize=12;html=1;rounded=0;entryX=0;entryY=0.2;entryDx=0;entryDy=0;entryPerimeter=0;" parent="nTOjmm5Q35ISDnajFgMh-1" edge="1">
          <mxGeometry width="160" relative="1" as="geometry">
            <mxPoint x="453.25" y="510" as="sourcePoint" />
            <mxPoint x="243.25" y="510" as="targetPoint" />
          </mxGeometry>
        </mxCell>
        <mxCell id="QU0-mM6ibidWZDQWm-KR-4" value="7 - Resultado" style="text;html=1;align=center;verticalAlign=middle;resizable=0;points=[];autosize=1;strokeColor=none;fillColor=none;" parent="nTOjmm5Q35ISDnajFgMh-1" vertex="1">
          <mxGeometry x="298.25" y="490" width="90" height="20" as="geometry" />
        </mxCell>
        <mxCell id="RDaqYQrlIA8cVZmOrZQQ-0" value="WC Back Externo" style="text;html=1;strokeColor=none;fillColor=none;align=center;verticalAlign=middle;whiteSpace=wrap;rounded=0;fontSize=21;fontColor=#333333;strokeWidth=3;fontStyle=1" parent="nTOjmm5Q35ISDnajFgMh-1" vertex="1">
          <mxGeometry x="298.25" y="40" width="280" height="30" as="geometry" />
        </mxCell>
      </root>
    </mxGraphModel>
  </diagram>
  <diagram id="Y1QHuClMavFOI2WsgAtu" name="WC - Back - Interno">
    <mxGraphModel dx="1087" dy="598" grid="1" gridSize="10" guides="1" tooltips="1" connect="1" arrows="1" fold="1" page="1" pageScale="1" pageWidth="827" pageHeight="1169" math="0" shadow="0">
      <root>
        <mxCell id="aQQ846MyAiFsbwW6Pdwk-0" />
        <mxCell id="aQQ846MyAiFsbwW6Pdwk-1" parent="aQQ846MyAiFsbwW6Pdwk-0" />
        <mxCell id="IQHK2sHAFvIevaf02maD-0" value="WC Back Interno" style="text;html=1;strokeColor=none;fillColor=none;align=center;verticalAlign=middle;whiteSpace=wrap;rounded=0;fontSize=21;fontColor=#333333;strokeWidth=3;fontStyle=1" parent="aQQ846MyAiFsbwW6Pdwk-1" vertex="1">
          <mxGeometry x="308" y="20" width="280" height="30" as="geometry" />
        </mxCell>
        <mxCell id="tMp52JqUUzojKHOGt7xW-0" value="Frontend Applicação" style="sketch=0;pointerEvents=1;shadow=0;dashed=0;html=1;strokeColor=none;fillColor=#434445;aspect=fixed;labelPosition=center;verticalLabelPosition=bottom;verticalAlign=top;align=center;outlineConnect=0;shape=mxgraph.vvd.web_browser;" parent="aQQ846MyAiFsbwW6Pdwk-1" vertex="1">
          <mxGeometry x="130" y="103.34000000000009" width="50" height="35.5" as="geometry" />
        </mxCell>
        <mxCell id="tMp52JqUUzojKHOGt7xW-1" value="Backend Aplicação" style="sketch=0;outlineConnect=0;fontColor=#232F3E;gradientColor=none;fillColor=#232F3D;strokeColor=none;dashed=0;verticalLabelPosition=bottom;verticalAlign=top;align=center;html=1;fontSize=12;fontStyle=0;aspect=fixed;pointerEvents=1;shape=mxgraph.aws4.traditional_server;" parent="aQQ846MyAiFsbwW6Pdwk-1" vertex="1">
          <mxGeometry x="361.25" y="91.17000000000002" width="27.5" height="47.67" as="geometry" />
        </mxCell>
        <mxCell id="tMp52JqUUzojKHOGt7xW-4" value="" style="endArrow=open;endFill=1;endSize=12;html=1;rounded=0;entryX=0;entryY=0.2;entryDx=0;entryDy=0;entryPerimeter=0;" parent="aQQ846MyAiFsbwW6Pdwk-1" edge="1">
          <mxGeometry width="160" relative="1" as="geometry">
            <mxPoint x="378.75" y="233.34000000000037" as="sourcePoint" />
            <mxPoint x="588.75" y="233.34000000000037" as="targetPoint" />
          </mxGeometry>
        </mxCell>
        <mxCell id="tMp52JqUUzojKHOGt7xW-5" value="1 - Solicita token(client id e secret)" style="text;html=1;align=center;verticalAlign=middle;resizable=0;points=[];autosize=1;strokeColor=none;fillColor=none;" parent="aQQ846MyAiFsbwW6Pdwk-1" vertex="1">
          <mxGeometry x="378.75" y="213.3400000000001" width="200" height="20" as="geometry" />
        </mxCell>
        <mxCell id="tMp52JqUUzojKHOGt7xW-6" value="" style="endArrow=open;endFill=1;endSize=12;html=1;rounded=0;entryX=0;entryY=0.2;entryDx=0;entryDy=0;entryPerimeter=0;" parent="aQQ846MyAiFsbwW6Pdwk-1" edge="1">
          <mxGeometry width="160" relative="1" as="geometry">
            <mxPoint x="588.75" y="273.3400000000004" as="sourcePoint" />
            <mxPoint x="378.75" y="273.3400000000004" as="targetPoint" />
          </mxGeometry>
        </mxCell>
        <mxCell id="tMp52JqUUzojKHOGt7xW-7" value="2 - Token" style="text;html=1;align=center;verticalAlign=middle;resizable=0;points=[];autosize=1;strokeColor=none;fillColor=none;" parent="aQQ846MyAiFsbwW6Pdwk-1" vertex="1">
          <mxGeometry x="448.75" y="253.3400000000001" width="60" height="20" as="geometry" />
        </mxCell>
        <mxCell id="tMp52JqUUzojKHOGt7xW-10" value="" style="endArrow=none;html=1;rounded=0;fillColor=#bac8d3;strokeColor=#23445d;strokeWidth=2;" parent="aQQ846MyAiFsbwW6Pdwk-1" edge="1">
          <mxGeometry width="50" height="50" relative="1" as="geometry">
            <mxPoint x="155" y="513.3400000000001" as="sourcePoint" />
            <mxPoint x="154.57999999999993" y="167.34000000000015" as="targetPoint" />
          </mxGeometry>
        </mxCell>
        <mxCell id="tMp52JqUUzojKHOGt7xW-11" value="" style="endArrow=none;html=1;rounded=0;fillColor=#bac8d3;strokeColor=#23445d;strokeWidth=2;" parent="aQQ846MyAiFsbwW6Pdwk-1" edge="1">
          <mxGeometry width="50" height="50" relative="1" as="geometry">
            <mxPoint x="375" y="513.3400000000001" as="sourcePoint" />
            <mxPoint x="374.5799999999997" y="172.34000000000015" as="targetPoint" />
          </mxGeometry>
        </mxCell>
        <mxCell id="tMp52JqUUzojKHOGt7xW-12" value="" style="endArrow=none;html=1;rounded=0;fillColor=#bac8d3;strokeColor=#23445d;strokeWidth=2;" parent="aQQ846MyAiFsbwW6Pdwk-1" edge="1">
          <mxGeometry width="50" height="50" relative="1" as="geometry">
            <mxPoint x="593" y="513.3400000000001" as="sourcePoint" />
            <mxPoint x="593.3299999999999" y="173.34000000000037" as="targetPoint" />
          </mxGeometry>
        </mxCell>
        <mxCell id="tMp52JqUUzojKHOGt7xW-13" value="&lt;font color=&quot;#1a3300&quot;&gt;&lt;b&gt;&amp;nbsp; &amp;nbsp; Web Component&lt;/b&gt;&lt;br&gt;&lt;br&gt;Coleta dados&lt;br&gt;Apresentado o resultado da chamadas a api&lt;/font&gt;" style="rounded=0;whiteSpace=wrap;html=1;fillColor=#d5e8d4;strokeColor=none;align=left;" parent="aQQ846MyAiFsbwW6Pdwk-1" vertex="1">
          <mxGeometry x="18" y="333.22" width="135" height="156.78" as="geometry" />
        </mxCell>
        <mxCell id="tMp52JqUUzojKHOGt7xW-14" value="&lt;font color=&quot;#4d4d4d&quot;&gt;Inicializa o Web Component&amp;nbsp;&lt;/font&gt;" style="rounded=0;whiteSpace=wrap;html=1;fontSize=12;strokeColor=none;fillColor=#CCCCCC;align=center;" parent="aQQ846MyAiFsbwW6Pdwk-1" vertex="1">
          <mxGeometry x="18" y="253.34000000000015" width="135" height="60" as="geometry" />
        </mxCell>
        <mxCell id="tMp52JqUUzojKHOGt7xW-15" value="" style="endArrow=open;endFill=1;endSize=12;html=1;rounded=0;" parent="aQQ846MyAiFsbwW6Pdwk-1" edge="1">
          <mxGeometry width="160" relative="1" as="geometry">
            <mxPoint x="378.75" y="390" as="sourcePoint" />
            <mxPoint x="810.75" y="390.1700000000001" as="targetPoint" />
          </mxGeometry>
        </mxCell>
        <mxCell id="tMp52JqUUzojKHOGt7xW-16" value="4 - Executa chamada do serviço com o Token" style="text;html=1;align=center;verticalAlign=middle;resizable=0;points=[];autosize=1;strokeColor=none;fillColor=none;" parent="aQQ846MyAiFsbwW6Pdwk-1" vertex="1">
          <mxGeometry x="468" y="370.0000000000001" width="260" height="20" as="geometry" />
        </mxCell>
        <mxCell id="tMp52JqUUzojKHOGt7xW-17" value="" style="endArrow=open;endFill=1;endSize=12;html=1;rounded=0;" parent="aQQ846MyAiFsbwW6Pdwk-1" edge="1">
          <mxGeometry width="160" relative="1" as="geometry">
            <mxPoint x="800.75" y="433.05000000000007" as="sourcePoint" />
            <mxPoint x="378.75" y="432.88" as="targetPoint" />
          </mxGeometry>
        </mxCell>
        <mxCell id="tMp52JqUUzojKHOGt7xW-18" value="5 - Resultado" style="text;html=1;align=center;verticalAlign=middle;resizable=0;points=[];autosize=1;strokeColor=none;fillColor=none;" parent="aQQ846MyAiFsbwW6Pdwk-1" vertex="1">
          <mxGeometry x="700.75" y="413.22000000000014" width="90" height="20" as="geometry" />
        </mxCell>
        <mxCell id="tMp52JqUUzojKHOGt7xW-19" value="RH SSO" style="sketch=0;aspect=fixed;pointerEvents=1;shadow=0;dashed=0;html=1;strokeColor=none;labelPosition=center;verticalLabelPosition=bottom;verticalAlign=top;align=center;fillColor=#333333;shape=mxgraph.mscae.enterprise.lock;fontSize=12;fontColor=#1A3300;" parent="aQQ846MyAiFsbwW6Pdwk-1" vertex="1">
          <mxGeometry x="570" y="90.00000000000006" width="39" height="50" as="geometry" />
        </mxCell>
        <mxCell id="tMp52JqUUzojKHOGt7xW-20" value="Serviço&amp;nbsp;" style="sketch=0;outlineConnect=0;fontColor=#232F3E;gradientColor=none;fillColor=#232F3D;strokeColor=none;dashed=0;verticalLabelPosition=bottom;verticalAlign=top;align=center;html=1;fontSize=12;fontStyle=0;aspect=fixed;pointerEvents=1;shape=mxgraph.aws4.traditional_server;" parent="aQQ846MyAiFsbwW6Pdwk-1" vertex="1">
          <mxGeometry x="800" y="91.17000000000002" width="27.5" height="47.67" as="geometry" />
        </mxCell>
        <mxCell id="tMp52JqUUzojKHOGt7xW-21" value="" style="endArrow=none;html=1;rounded=0;fillColor=#bac8d3;strokeColor=#23445d;strokeWidth=2;" parent="aQQ846MyAiFsbwW6Pdwk-1" edge="1">
          <mxGeometry width="50" height="50" relative="1" as="geometry">
            <mxPoint x="813.75" y="513.3400000000001" as="sourcePoint" />
            <mxPoint x="813.3299999999999" y="172.34000000000015" as="targetPoint" />
          </mxGeometry>
        </mxCell>
        <mxCell id="K5SW-Wc85ytxkNjJwlkp-0" value="" style="endArrow=open;endFill=1;endSize=12;html=1;rounded=0;" parent="aQQ846MyAiFsbwW6Pdwk-1" edge="1">
          <mxGeometry width="160" relative="1" as="geometry">
            <mxPoint x="158" y="340" as="sourcePoint" />
            <mxPoint x="368" y="340" as="targetPoint" />
          </mxGeometry>
        </mxCell>
        <mxCell id="K5SW-Wc85ytxkNjJwlkp-1" value="3 - Executa&amp;nbsp; chamada api backend" style="text;html=1;align=center;verticalAlign=middle;resizable=0;points=[];autosize=1;strokeColor=none;fillColor=none;" parent="aQQ846MyAiFsbwW6Pdwk-1" vertex="1">
          <mxGeometry x="159.25" y="320" width="200" height="20" as="geometry" />
        </mxCell>
        <mxCell id="Hjt8tniW7rIC1iz3jyr7-0" value="" style="endArrow=open;endFill=1;endSize=12;html=1;rounded=0;" parent="aQQ846MyAiFsbwW6Pdwk-1" edge="1">
          <mxGeometry width="160" relative="1" as="geometry">
            <mxPoint x="368" y="473" as="sourcePoint" />
            <mxPoint x="164" y="472.7700000000001" as="targetPoint" />
          </mxGeometry>
        </mxCell>
        <mxCell id="Hjt8tniW7rIC1iz3jyr7-1" value="6 - Resultado" style="text;html=1;align=center;verticalAlign=middle;resizable=0;points=[];autosize=1;strokeColor=none;fillColor=none;" parent="aQQ846MyAiFsbwW6Pdwk-1" vertex="1">
          <mxGeometry x="278" y="453.34000000000015" width="90" height="20" as="geometry" />
        </mxCell>
      </root>
    </mxGraphModel>
  </diagram>
  <diagram id="aoXM7nHCxdt4-2vImcMG" name="WC - Aberto Externo">
    <mxGraphModel dx="761" dy="387" grid="1" gridSize="10" guides="1" tooltips="1" connect="1" arrows="1" fold="1" page="1" pageScale="1" pageWidth="827" pageHeight="1169" math="0" shadow="0">
      <root>
        <mxCell id="yLMDc9PrB0oXuyt06QU7-0" />
        <mxCell id="yLMDc9PrB0oXuyt06QU7-1" parent="yLMDc9PrB0oXuyt06QU7-0" />
        <mxCell id="Ys5h84SaUJdUY127ywwy-0" value="Frontend Cliente" style="sketch=0;pointerEvents=1;shadow=0;dashed=0;html=1;strokeColor=none;fillColor=#434445;aspect=fixed;labelPosition=center;verticalLabelPosition=bottom;verticalAlign=top;align=center;outlineConnect=0;shape=mxgraph.vvd.web_browser;" parent="yLMDc9PrB0oXuyt06QU7-1" vertex="1">
          <mxGeometry x="252" y="90" width="50" height="35.5" as="geometry" />
        </mxCell>
        <mxCell id="Ys5h84SaUJdUY127ywwy-10" value="" style="endArrow=none;html=1;rounded=0;fillColor=#bac8d3;strokeColor=#23445d;strokeWidth=2;" parent="yLMDc9PrB0oXuyt06QU7-1" edge="1">
          <mxGeometry width="50" height="50" relative="1" as="geometry">
            <mxPoint x="277" y="370" as="sourcePoint" />
            <mxPoint x="276.5799999999999" y="154" as="targetPoint" />
          </mxGeometry>
        </mxCell>
        <mxCell id="Ys5h84SaUJdUY127ywwy-12" value="" style="endArrow=none;html=1;rounded=0;fillColor=#bac8d3;strokeColor=#23445d;strokeWidth=2;" parent="yLMDc9PrB0oXuyt06QU7-1" edge="1">
          <mxGeometry width="50" height="50" relative="1" as="geometry">
            <mxPoint x="610.13" y="369" as="sourcePoint" />
            <mxPoint x="610" y="150" as="targetPoint" />
          </mxGeometry>
        </mxCell>
        <mxCell id="Ys5h84SaUJdUY127ywwy-13" value="&lt;font color=&quot;#1a3300&quot;&gt;&lt;b&gt;&amp;nbsp; &amp;nbsp; Web Component&lt;/b&gt;&lt;br&gt;&lt;br&gt;Coleta dados&lt;br&gt;Apresentado o resultado da chamadas a api&lt;/font&gt;" style="rounded=0;whiteSpace=wrap;html=1;fillColor=#d5e8d4;strokeColor=none;align=left;" parent="yLMDc9PrB0oXuyt06QU7-1" vertex="1">
          <mxGeometry x="140" y="260" width="135" height="100" as="geometry" />
        </mxCell>
        <mxCell id="Ys5h84SaUJdUY127ywwy-14" value="&lt;font color=&quot;#4d4d4d&quot;&gt;Inicializa o Web Component enxertando o ClientId&lt;/font&gt;" style="rounded=0;whiteSpace=wrap;html=1;fontSize=12;strokeColor=none;fillColor=#CCCCCC;align=center;" parent="yLMDc9PrB0oXuyt06QU7-1" vertex="1">
          <mxGeometry x="141" y="180" width="135" height="60" as="geometry" />
        </mxCell>
        <mxCell id="Ys5h84SaUJdUY127ywwy-15" value="" style="endArrow=open;endFill=1;endSize=12;html=1;rounded=0;" parent="yLMDc9PrB0oXuyt06QU7-1" edge="1">
          <mxGeometry width="160" relative="1" as="geometry">
            <mxPoint x="280.88" y="262" as="sourcePoint" />
            <mxPoint x="607.13" y="262" as="targetPoint" />
          </mxGeometry>
        </mxCell>
        <mxCell id="Ys5h84SaUJdUY127ywwy-16" value="1 - Executa chamada da api somente com o ClientId" style="text;html=1;align=center;verticalAlign=middle;resizable=0;points=[];autosize=1;strokeColor=none;fillColor=none;" parent="yLMDc9PrB0oXuyt06QU7-1" vertex="1">
          <mxGeometry x="295.88" y="242" width="290" height="20" as="geometry" />
        </mxCell>
        <mxCell id="Ys5h84SaUJdUY127ywwy-17" value="" style="endArrow=open;endFill=1;endSize=12;html=1;rounded=0;" parent="yLMDc9PrB0oXuyt06QU7-1" edge="1">
          <mxGeometry width="160" relative="1" as="geometry">
            <mxPoint x="604.13" y="302" as="sourcePoint" />
            <mxPoint x="284.13" y="302" as="targetPoint" />
          </mxGeometry>
        </mxCell>
        <mxCell id="Ys5h84SaUJdUY127ywwy-18" value="2 - Resultado" style="text;html=1;align=center;verticalAlign=middle;resizable=0;points=[];autosize=1;strokeColor=none;fillColor=none;" parent="yLMDc9PrB0oXuyt06QU7-1" vertex="1">
          <mxGeometry x="501.13" y="282" width="90" height="20" as="geometry" />
        </mxCell>
        <mxCell id="Ys5h84SaUJdUY127ywwy-19" value="Sensedia" style="verticalLabelPosition=bottom;html=1;verticalAlign=top;align=center;strokeColor=none;fillColor=#4D4D4D;shape=mxgraph.azure.cloud;fontSize=12;fontColor=#333333;" parent="yLMDc9PrB0oXuyt06QU7-1" vertex="1">
          <mxGeometry x="587.13" y="92" width="50" height="32.5" as="geometry" />
        </mxCell>
        <mxCell id="uyitbf3dMej0XpGZ8nyr-0" value="WC Aberto Externo" style="text;html=1;strokeColor=none;fillColor=none;align=center;verticalAlign=middle;whiteSpace=wrap;rounded=0;fontSize=21;fontColor=#333333;strokeWidth=3;fontStyle=1" parent="yLMDc9PrB0oXuyt06QU7-1" vertex="1">
          <mxGeometry x="322" y="20" width="280" height="30" as="geometry" />
        </mxCell>
      </root>
    </mxGraphModel>
  </diagram>
  <diagram id="mKhyq7g9VGbbMYc9Q6BS" name="WC - Aberto Interno">
    <mxGraphModel dx="761" dy="419" grid="1" gridSize="10" guides="1" tooltips="1" connect="1" arrows="1" fold="1" page="1" pageScale="1" pageWidth="827" pageHeight="1169" math="0" shadow="0">
      <root>
        <mxCell id="lPZkh1z0uT6YWIC_tPZf-0" />
        <mxCell id="lPZkh1z0uT6YWIC_tPZf-1" parent="lPZkh1z0uT6YWIC_tPZf-0" />
        <mxCell id="lPZkh1z0uT6YWIC_tPZf-2" value="Frontend Cliente" style="sketch=0;pointerEvents=1;shadow=0;dashed=0;html=1;strokeColor=none;fillColor=#434445;aspect=fixed;labelPosition=center;verticalLabelPosition=bottom;verticalAlign=top;align=center;outlineConnect=0;shape=mxgraph.vvd.web_browser;" parent="lPZkh1z0uT6YWIC_tPZf-1" vertex="1">
          <mxGeometry x="223" y="112.17000000000002" width="50" height="35.5" as="geometry" />
        </mxCell>
        <mxCell id="lPZkh1z0uT6YWIC_tPZf-3" value="" style="endArrow=none;html=1;rounded=0;fillColor=#bac8d3;strokeColor=#23445d;strokeWidth=2;" parent="lPZkh1z0uT6YWIC_tPZf-1" edge="1">
          <mxGeometry width="50" height="50" relative="1" as="geometry">
            <mxPoint x="248" y="392.16999999999996" as="sourcePoint" />
            <mxPoint x="247.57999999999993" y="176.17000000000002" as="targetPoint" />
          </mxGeometry>
        </mxCell>
        <mxCell id="lPZkh1z0uT6YWIC_tPZf-4" value="" style="endArrow=none;html=1;rounded=0;fillColor=#bac8d3;strokeColor=#23445d;strokeWidth=2;" parent="lPZkh1z0uT6YWIC_tPZf-1" edge="1">
          <mxGeometry width="50" height="50" relative="1" as="geometry">
            <mxPoint x="576.25" y="409.16999999999996" as="sourcePoint" />
            <mxPoint x="576.25" y="172.17000000000002" as="targetPoint" />
          </mxGeometry>
        </mxCell>
        <mxCell id="lPZkh1z0uT6YWIC_tPZf-5" value="&lt;font color=&quot;#1a3300&quot;&gt;&lt;b&gt;&amp;nbsp; &amp;nbsp; Web Component&lt;/b&gt;&lt;br&gt;&lt;br&gt;Coleta dados&lt;br&gt;Apresentado o resultado da chamadas a api&lt;/font&gt;" style="rounded=0;whiteSpace=wrap;html=1;fillColor=#d5e8d4;strokeColor=none;align=left;" parent="lPZkh1z0uT6YWIC_tPZf-1" vertex="1">
          <mxGeometry x="112" y="282.17" width="135" height="100" as="geometry" />
        </mxCell>
        <mxCell id="lPZkh1z0uT6YWIC_tPZf-6" value="&lt;font color=&quot;#4d4d4d&quot;&gt;Inicializa o Web Component&amp;nbsp;&lt;/font&gt;" style="rounded=0;whiteSpace=wrap;html=1;fontSize=12;strokeColor=none;fillColor=#CCCCCC;align=center;" parent="lPZkh1z0uT6YWIC_tPZf-1" vertex="1">
          <mxGeometry x="110" y="202.17000000000002" width="135" height="60" as="geometry" />
        </mxCell>
        <mxCell id="lPZkh1z0uT6YWIC_tPZf-7" value="" style="endArrow=open;endFill=1;endSize=12;html=1;rounded=0;" parent="lPZkh1z0uT6YWIC_tPZf-1" edge="1">
          <mxGeometry width="160" relative="1" as="geometry">
            <mxPoint x="247" y="302.16999999999996" as="sourcePoint" />
            <mxPoint x="573.25" y="302.16999999999996" as="targetPoint" />
          </mxGeometry>
        </mxCell>
        <mxCell id="lPZkh1z0uT6YWIC_tPZf-8" value="1 - Executa chamada ao serviço" style="text;html=1;align=center;verticalAlign=middle;resizable=0;points=[];autosize=1;strokeColor=none;fillColor=none;" parent="lPZkh1z0uT6YWIC_tPZf-1" vertex="1">
          <mxGeometry x="312" y="282.17" width="190" height="20" as="geometry" />
        </mxCell>
        <mxCell id="lPZkh1z0uT6YWIC_tPZf-9" value="" style="endArrow=open;endFill=1;endSize=12;html=1;rounded=0;" parent="lPZkh1z0uT6YWIC_tPZf-1" edge="1">
          <mxGeometry width="160" relative="1" as="geometry">
            <mxPoint x="570.25" y="342.16999999999996" as="sourcePoint" />
            <mxPoint x="250.25" y="342.16999999999996" as="targetPoint" />
          </mxGeometry>
        </mxCell>
        <mxCell id="lPZkh1z0uT6YWIC_tPZf-10" value="2 - Resultado" style="text;html=1;align=center;verticalAlign=middle;resizable=0;points=[];autosize=1;strokeColor=none;fillColor=none;" parent="lPZkh1z0uT6YWIC_tPZf-1" vertex="1">
          <mxGeometry x="467.25" y="322.16999999999996" width="90" height="20" as="geometry" />
        </mxCell>
        <mxCell id="GziVyOpOyLAHyxK4XBXw-0" value="WC Aberto Interno" style="text;html=1;strokeColor=none;fillColor=none;align=center;verticalAlign=middle;whiteSpace=wrap;rounded=0;fontSize=21;fontColor=#333333;strokeWidth=3;fontStyle=1" parent="lPZkh1z0uT6YWIC_tPZf-1" vertex="1">
          <mxGeometry x="298" y="30" width="280" height="30" as="geometry" />
        </mxCell>
        <mxCell id="7_RRbXdzzZoP2N-Y57ea-0" value="Serviço&amp;nbsp;" style="sketch=0;outlineConnect=0;fontColor=#232F3E;gradientColor=none;fillColor=#232F3D;strokeColor=none;dashed=0;verticalLabelPosition=bottom;verticalAlign=top;align=center;html=1;fontSize=12;fontStyle=0;aspect=fixed;pointerEvents=1;shape=mxgraph.aws4.traditional_server;" parent="lPZkh1z0uT6YWIC_tPZf-1" vertex="1">
          <mxGeometry x="565.75" y="100" width="27.5" height="47.67" as="geometry" />
        </mxCell>
      </root>
    </mxGraphModel>
  </diagram>
</mxfile>
